<svg data-cwssvg-init class="065-office.svg" version="1.1" xmlns="http://www.w3.org/2000/svg" xmlns:xlink="http://www.w3.org/1999/xlink" x="0px" y="0px" viewBox="0 0 512 512" style="enable-background:new 0 0 512 512;" xml:space="preserve"><path class="cwssvgi_0" style="fill:#DA8C36;" d="M58.182,488.727v-46.545c0-6.982-4.655-11.636-11.636-11.636s-11.636,4.655-11.636,11.636v46.545 H58.182z"/><path class="cwssvgi_1" style="fill:#DA8C36;" d="M477.091,488.727v-46.545c0-6.982-4.655-11.636-11.636-11.636s-11.636,4.655-11.636,11.636v46.545 H477.091z"/><polygon class="cwssvgi_2" style="fill:#C97629;" points="453.818,430.545 453.818,453.818 465.455,453.818 465.455,488.727 477.091,488.727 477.091,453.818 477.091,430.545 "/><polygon class="cwssvgi_3" style="fill:#C97629;" points="34.909,430.545 34.909,453.818 46.545,453.818 46.545,488.727 58.182,488.727 58.182,453.818 58.182,430.545 "/><path class="cwssvgi_4" style="fill:#B0C4D9;" d="M256,69.818c-6.982,0-11.636-4.655-11.636-11.636V11.636C244.364,4.655,249.018,0,256,0 c6.982,0,11.636,4.655,11.636,11.636v46.545C267.636,65.164,262.982,69.818,256,69.818z"/><path class="cwssvgi_5" style="fill:#D5E3EF;" d="M116.364,488.727V116.364c0-6.982,4.655-11.636,11.636-11.636h58.182 c6.982,0,11.636-4.655,11.636-11.636V69.818c0-6.982,4.655-11.636,11.636-11.636h93.091c6.982,0,11.636,4.655,11.636,11.636v23.273 c0,6.982,4.655,11.636,11.636,11.636H384c6.982,0,11.636,4.655,11.636,11.636v372.364H116.364z"/><path class="cwssvgi_6" style="fill:#4C9CD6;" d="M349.091,186.182H162.909c-6.982,0-11.636-4.655-11.636-11.636v-23.273 c0-6.982,4.655-11.636,11.636-11.636h186.182c6.982,0,11.636,4.655,11.636,11.636v23.273 C360.727,181.527,356.073,186.182,349.091,186.182z"/><polygon class="cwssvgi_7" style="fill:#70B7E5;" points="244.364,186.182 221.091,186.182 256,139.636 279.273,139.636 "/><polygon class="cwssvgi_8" style="fill:#70B7E5;" points="302.545,186.182 256,186.182 290.909,139.636 337.455,139.636 "/><path class="cwssvgi_9" style="fill:#4C9CD6;" d="M349.091,256H162.909c-6.982,0-11.636-4.655-11.636-11.636v-23.273 c0-6.982,4.655-11.636,11.636-11.636h186.182c6.982,0,11.636,4.655,11.636,11.636v23.273C360.727,251.345,356.073,256,349.091,256z" /><polygon class="cwssvgi_10" style="fill:#70B7E5;" points="244.364,256 221.091,256 256,209.455 279.273,209.455 "/><polygon class="cwssvgi_11" style="fill:#70B7E5;" points="302.545,256 256,256 290.909,209.455 337.455,209.455 "/><path class="cwssvgi_12" style="fill:#4C9CD6;" d="M349.091,325.818H162.909c-6.982,0-11.636-4.655-11.636-11.636v-23.273 c0-6.982,4.655-11.636,11.636-11.636h186.182c6.982,0,11.636,4.655,11.636,11.636v23.273 C360.727,321.164,356.073,325.818,349.091,325.818z"/><polygon class="cwssvgi_13" style="fill:#70B7E5;" points="244.364,325.818 221.091,325.818 256,279.273 279.273,279.273 "/><polygon class="cwssvgi_14" style="fill:#70B7E5;" points="302.545,325.818 256,325.818 290.909,279.273 337.455,279.273 "/><path class="cwssvgi_15" style="fill:#4C9CD6;" d="M349.091,395.636H162.909c-6.982,0-11.636-4.655-11.636-11.636v-23.273 c0-6.982,4.655-11.636,11.636-11.636h186.182c6.982,0,11.636,4.655,11.636,11.636V384 C360.727,390.982,356.073,395.636,349.091,395.636z"/><polygon class="cwssvgi_16" style="fill:#70B7E5;" points="244.364,395.636 221.091,395.636 256,349.091 279.273,349.091 "/><polygon class="cwssvgi_17" style="fill:#70B7E5;" points="302.545,395.636 256,395.636 290.909,349.091 337.455,349.091 "/><path class="cwssvgi_18" style="fill:#595A66;" d="M500.364,512H11.636C4.655,512,0,507.345,0,500.364s4.655-11.636,11.636-11.636h488.727 c6.982,0,11.636,4.655,11.636,11.636S507.345,512,500.364,512z"/><path class="cwssvgi_19" style="fill:#89C763;" d="M500.364,407.273c0,19.782-15.127,34.909-34.909,34.909s-34.909-15.127-34.909-34.909 s34.909-58.182,34.909-58.182S500.364,387.491,500.364,407.273z"/><path class="cwssvgi_20" style="fill:#71B956;" d="M482.909,370.036c3.491,8.145,5.818,15.127,5.818,20.945c0,22.109-15.127,39.564-34.909,39.564 c-6.982,0-12.8-2.327-18.618-5.818c5.818,10.473,17.455,17.455,30.255,17.455c19.782,0,34.909-15.127,34.909-34.909 C500.364,397.964,491.055,382.836,482.909,370.036z"/><path class="cwssvgi_21" style="fill:#89C763;" d="M81.455,407.273c0,19.782-15.127,34.909-34.909,34.909s-34.909-15.127-34.909-34.909 s34.909-58.182,34.909-58.182S81.455,387.491,81.455,407.273z"/><rect class="cwssvgi_22" x="221.091" y="418.909" style="fill:#4C9CD6;" width="69.818" height="69.818"/><path class="cwssvgi_23" style="fill:#4C9CD6;" d="M349.091,465.455h-23.273c-6.982,0-11.636-4.655-11.636-11.636v-23.273 c0-6.982,4.655-11.636,11.636-11.636h23.273c6.982,0,11.636,4.655,11.636,11.636v23.273 C360.727,460.8,356.073,465.455,349.091,465.455z"/><path class="cwssvgi_24" style="fill:#4C9CD6;" d="M186.182,465.455h-23.273c-6.982,0-11.636-4.655-11.636-11.636v-23.273 c0-6.982,4.655-11.636,11.636-11.636h23.273c6.982,0,11.636,4.655,11.636,11.636v23.273 C197.818,460.8,193.164,465.455,186.182,465.455z"/><path class="cwssvgi_25" style="fill:#71B956;" d="M64,370.036c3.491,8.145,5.818,15.127,5.818,20.945c0,22.109-15.127,39.564-34.909,39.564 c-6.982,0-12.8-2.327-18.618-5.818c5.818,10.473,17.455,17.455,30.255,17.455c19.782,0,34.909-15.127,34.909-34.909 C81.455,397.964,72.145,382.836,64,370.036z"/><path class="cwssvgi_26" style="fill:#C9D5E3;" d="M302.545,58.182h-93.091c-6.982,0-11.636,4.655-11.636,11.636v23.273 c0,6.982-4.655,11.636-11.636,11.636h139.636c-6.982,0-11.636-4.655-11.636-11.636V69.818 C314.182,62.836,309.527,58.182,302.545,58.182z"/><path class="cwssvgi_27" style="fill:#B0C4D9;" d="M314.182,93.091V69.818c0-6.982-4.655-11.636-11.636-11.636h-34.909 c6.982,0,11.636,4.655,11.636,11.636v23.273c0,6.982,4.655,11.636,11.636,11.636h34.909 C318.836,104.727,314.182,100.073,314.182,93.091z"/><path class="cwssvgi_28" style="fill:#3689C9;" d="M360.727,151.273H151.273l0,0c0-6.982,4.655-11.636,11.636-11.636h186.182 C356.073,139.636,360.727,144.291,360.727,151.273L360.727,151.273z"/><polygon class="cwssvgi_29" style="fill:#4C9CD6;" points="269.964,151.273 279.273,139.636 256,139.636 246.691,151.273 "/><polygon class="cwssvgi_30" style="fill:#4C9CD6;" points="328.145,151.273 337.455,139.636 290.909,139.636 281.6,151.273 "/><path class="cwssvgi_31" style="fill:#3689C9;" d="M360.727,221.091H151.273l0,0c0-6.982,4.655-11.636,11.636-11.636h186.182 C356.073,209.455,360.727,214.109,360.727,221.091L360.727,221.091z"/><polygon class="cwssvgi_32" style="fill:#4C9CD6;" points="269.964,221.091 279.273,209.455 256,209.455 246.691,221.091 "/><polygon class="cwssvgi_33" style="fill:#4C9CD6;" points="328.145,221.091 337.455,209.455 290.909,209.455 281.6,221.091 "/><path class="cwssvgi_34" style="fill:#3689C9;" d="M360.727,290.909H151.273l0,0c0-6.982,4.655-11.636,11.636-11.636h186.182 C356.073,279.273,360.727,283.927,360.727,290.909L360.727,290.909z"/><polygon class="cwssvgi_35" style="fill:#4C9CD6;" points="269.964,290.909 279.273,279.273 256,279.273 246.691,290.909 "/><polygon class="cwssvgi_36" style="fill:#4C9CD6;" points="328.145,290.909 337.455,279.273 290.909,279.273 281.6,290.909 "/><path class="cwssvgi_37" style="fill:#3689C9;" d="M360.727,360.727H151.273l0,0c0-6.982,4.655-11.636,11.636-11.636h186.182 C356.073,349.091,360.727,353.745,360.727,360.727L360.727,360.727z"/><path class="cwssvgi_38" style="fill:#3689C9;" d="M360.727,430.545h-46.545l0,0c0-6.982,4.655-11.636,11.636-11.636h23.273 C356.073,418.909,360.727,423.564,360.727,430.545L360.727,430.545z"/><path class="cwssvgi_39" style="fill:#3689C9;" d="M197.818,430.545h-46.545l0,0c0-6.982,4.655-11.636,11.636-11.636h23.273 C193.164,418.909,197.818,423.564,197.818,430.545L197.818,430.545z"/><polygon class="cwssvgi_40" style="fill:#4C9CD6;" points="269.964,360.727 279.273,349.091 256,349.091 246.691,360.727 "/><polygon class="cwssvgi_41" style="fill:#4C9CD6;" points="328.145,360.727 337.455,349.091 290.909,349.091 281.6,360.727 "/><polygon class="cwssvgi_42" style="fill:#70B7E5;" points="256,418.909 221.091,460.8 221.091,488.727 279.273,418.909 "/><polygon class="cwssvgi_43" style="fill:#70B7E5;" points="290.909,418.909 232.727,488.727 279.273,488.727 290.909,474.764 "/><circle class="cwssvgi_44" style="fill:#1470B8;" cx="261.818" cy="459.636" r="5.818"/><circle class="cwssvgi_45" style="fill:#1470B8;" cx="250.182" cy="459.636" r="5.818"/></svg>