<svg data-cwssvg-init class="067-responsive.svg" version="1.1" xmlns="http://www.w3.org/2000/svg" xmlns:xlink="http://www.w3.org/1999/xlink" x="0px" y="0px" viewBox="0 0 512 512" style="enable-background:new 0 0 512 512;" xml:space="preserve"><path class="cwssvgi_0" style="fill:#D5E3EF;" d="M314.182,418.909v-23.273h-93.091v23.273c0,12.8-10.473,23.273-23.273,23.273h-23.273 c-6.982,0-11.636,4.655-11.636,11.636l0,0c0,6.982,4.655,11.636,11.636,11.636h186.182c6.982,0,11.636-4.655,11.636-11.636l0,0 c0-6.982-4.655-11.636-11.636-11.636h-23.273C324.655,442.182,314.182,431.709,314.182,418.909z"/><path class="cwssvgi_1" style="fill:#B0C4D9;" d="M221.091,395.636v11.636h58.182c6.982,0,11.636,4.655,11.636,11.636l0,0 c0,6.982,4.655,11.636,11.636,11.636h5.818c3.491,0,5.818-2.327,5.818-5.818v-17.455v-11.636H221.091z"/><path class="cwssvgi_2" style="fill:#B0C4D9;" d="M360.727,465.455H174.545c-6.982,0-11.636-4.655-11.636-11.636h209.455 C372.364,460.8,367.709,465.455,360.727,465.455z"/><path class="cwssvgi_3" style="fill:#D5E3EF;" d="M488.727,395.636H69.818c-12.8,0-23.273-10.473-23.273-23.273V69.818 c0-12.8,10.473-23.273,23.273-23.273h418.909c12.8,0,23.273,10.473,23.273,23.273v302.545 C512,385.164,501.527,395.636,488.727,395.636z"/><path class="cwssvgi_4" style="fill:#595A66;" d="M512,325.818H46.545v-256c0-12.8,10.473-23.273,23.273-23.273h418.909 c12.8,0,23.273,10.473,23.273,23.273V325.818z"/><circle class="cwssvgi_5" style="fill:#595A66;" cx="267.636" cy="360.727" r="11.636"/><rect class="cwssvgi_6" x="69.818" y="69.818" style="fill:#70B7E5;" width="418.909" height="232.727"/><path class="cwssvgi_7" style="fill:#595A66;" d="M139.636,465.455H23.273C10.473,465.455,0,454.982,0,442.182V209.455 c0-12.8,10.473-23.273,23.273-23.273h116.364c12.8,0,23.273,10.473,23.273,23.273v232.727 C162.909,454.982,152.436,465.455,139.636,465.455z"/><path class="cwssvgi_8" id="SVGCleanerId_0_1_" style="fill:#595A66;" d="M139.636,465.455H23.273C10.473,465.455,0,454.982,0,442.182V209.455 c0-12.8,10.473-23.273,23.273-23.273h116.364c12.8,0,23.273,10.473,23.273,23.273v232.727 C162.909,454.982,152.436,465.455,139.636,465.455z"/><path class="cwssvgi_9" style="fill:#494A52;" d="M151.273,189.673v252.509c0,6.982-4.655,11.636-11.636,11.636H3.491 c3.491,6.982,11.636,11.636,19.782,11.636h116.364c12.8,0,23.273-10.473,23.273-23.273V209.455 C162.909,201.309,158.255,193.164,151.273,189.673z"/><rect class="cwssvgi_10" x="23.273" y="232.727" style="fill:#70B7E5;" width="116.364" height="186.182"/><circle class="cwssvgi_11" style="fill:#35363E;" cx="81.455" cy="442.182" r="11.636"/><path class="cwssvgi_12" style="fill:#35363E;" d="M98.909,221.091H64c-3.491,0-5.818-2.327-5.818-5.818s2.327-5.818,5.818-5.818h34.909 c3.491,0,5.818,2.327,5.818,5.818S102.4,221.091,98.909,221.091z"/><polygon class="cwssvgi_13" style="fill:#90CEF1;" points="139.636,418.909 81.455,418.909 139.636,360.727 "/><polygon class="cwssvgi_14" style="fill:#90CEF1;" points="58.182,418.909 139.636,337.455 139.636,314.182 34.909,418.909 "/><rect class="cwssvgi_15" x="23.273" y="232.727" style="fill:#4C9CD6;" width="116.364" height="11.636"/><path class="cwssvgi_16" style="fill:#6F707E;" d="M11.636,414.255c0,10.473-4.655,20.945-11.636,27.927l0,0V209.455l0,0 c6.982,6.982,11.636,17.455,11.636,27.927V414.255z"/><path class="cwssvgi_17" style="fill:#90CEF1;" d="M465.455,290.909h-93.091l104.727-104.727v93.091C477.091,286.255,472.436,290.909,465.455,290.909z "/><polygon class="cwssvgi_18" style="fill:#90CEF1;" points="337.455,290.909 477.091,151.273 477.091,116.364 302.545,290.909 "/><path class="cwssvgi_19" style="fill:#6F707E;" d="M109.382,58.182c-10.473,0-20.945-4.655-27.927-11.636l0,0h232.727l0,0 c-6.982,6.982-17.455,11.636-27.927,11.636H109.382z"/><rect class="cwssvgi_20" x="162.909" y="302.545" style="fill:#35363E;" width="23.273" height="23.273"/><rect class="cwssvgi_21" x="162.909" y="325.818" style="fill:#B0C4D9;" width="23.273" height="69.818"/><path class="cwssvgi_22" style="fill:#4C9CD6;" d="M186.182,302.545h-23.273v-93.091l0,0c12.8,0,23.273,10.473,23.273,23.273V302.545z"/></svg>