<svg data-cwssvg-init class="089-shop.svg" version="1.1" xmlns="http://www.w3.org/2000/svg" xmlns:xlink="http://www.w3.org/1999/xlink" x="0px" y="0px" viewBox="0 0 512 512" style="enable-background:new 0 0 512 512;" xml:space="preserve"><rect class="cwssvgi_0" x="23.273" y="93.091" style="fill:#FFCB5B;" width="465.455" height="325.818"/><polygon class="cwssvgi_1" style="fill:#ECEFF9;" points="442.182,349.091 442.182,209.455 232.727,209.455 232.727,349.091 221.091,349.091 221.091,372.364 232.727,372.364 442.182,372.364 453.818,372.364 453.818,349.091 "/><path class="cwssvgi_2" style="fill:#F6B545;" d="M488.727,209.455H23.273v41.891c18.618,8.145,41.891,5.818,58.182-6.982 c19.782,15.127,50.036,15.127,69.818,0c19.782,15.127,50.036,15.127,69.818,0c19.782,15.127,50.036,15.127,69.818,0 c19.782,15.127,50.036,15.127,69.818,0c19.782,15.127,50.036,15.127,69.818,0c16.291,12.8,39.564,15.127,58.182,6.982V209.455z"/><path class="cwssvgi_3" style="fill:#99B4CD;" d="M512,430.545v34.909H0v-34.909c0-12.8,10.473-23.273,23.273-23.273h465.455 C501.527,407.273,512,417.745,512,430.545z"/><rect class="cwssvgi_4" x="58.182" y="209.455" style="fill:#ECEFF9;" width="139.636" height="256"/><rect class="cwssvgi_5" x="244.364" y="221.091" style="fill:#70B7E5;" width="186.182" height="128"/><polygon class="cwssvgi_6" style="fill:#ACD6F2;" points="314.182,349.091 279.273,349.091 325.818,221.091 360.727,221.091 "/><polygon class="cwssvgi_7" style="fill:#ACD6F2;" points="337.455,349.091 325.818,349.091 372.364,221.091 384,221.091 "/><rect class="cwssvgi_8" x="244.364" y="290.909" style="fill:#4C9CD6;" width="186.182" height="11.636"/><polygon class="cwssvgi_9" style="fill:#70B7E5;" points="296.727,302.545 331.636,302.545 335.127,290.909 300.218,290.909 "/><polygon class="cwssvgi_10" style="fill:#70B7E5;" points="354.909,302.545 358.4,290.909 346.764,290.909 343.273,302.545 "/><rect class="cwssvgi_11" x="81.455" y="221.091" style="fill:#70B7E5;" width="93.091" height="93.091"/><rect class="cwssvgi_12" x="81.455" y="325.818" style="fill:#70B7E5;" width="93.091" height="104.727"/><rect class="cwssvgi_13" x="244.364" y="279.273" style="fill:#ECEFF9;" width="186.182" height="11.636"/><polygon class="cwssvgi_14" style="fill:#6C9ABB;" points="209.455,453.818 209.455,407.273 197.818,407.273 197.818,453.818 197.818,465.455 512,465.455 512,453.818 "/><polygon class="cwssvgi_15" style="fill:#6C9ABB;" points="46.545,407.273 46.545,453.818 0,453.818 0,465.455 58.182,465.455 58.182,453.818 58.182,407.273 "/><rect class="cwssvgi_16" x="221.091" y="372.364" style="fill:#F6B545;" width="232.727" height="11.636"/><path class="cwssvgi_17" style="fill:#B0C4D9;" d="M372.364,430.545H232.727c-6.982,0-11.636-4.655-11.636-11.636l0,0 c0-6.982,4.655-11.636,11.636-11.636h139.636c6.982,0,11.636,4.655,11.636,11.636l0,0C384,425.891,379.345,430.545,372.364,430.545z "/><path class="cwssvgi_18" style="fill:#D4E3EE;" d="M81.455,244.364c19.782,15.127,50.036,15.127,69.818,0c12.8,10.473,30.255,13.964,46.545,10.473 v-45.382H58.182v45.382C66.327,252.509,74.473,250.182,81.455,244.364z"/><path class="cwssvgi_19" style="fill:#D4E3EE;" d="M442.182,209.455H232.727v41.891c18.618,8.145,41.891,5.818,58.182-6.982 c19.782,15.127,50.036,15.127,69.818,0c19.782,15.127,50.036,15.127,69.818,0c3.491,2.327,6.982,4.655,11.636,6.982V209.455z"/><path class="cwssvgi_20" style="fill:#4C9CD6;" d="M81.455,244.364c19.782,15.127,50.036,15.127,69.818,0c6.982,5.818,15.127,8.145,23.273,10.473 v-33.745H81.455V244.364z"/><path class="cwssvgi_21" style="fill:#4C9CD6;" d="M244.364,221.091v33.745c16.291,3.491,33.745,0,46.545-10.473c19.782,15.127,50.036,15.127,69.818,0 c19.782,15.127,50.036,15.127,69.818,0v-23.273H244.364z"/><path class="cwssvgi_22" style="fill:#70B7E5;" d="M373.527,251.345L384,221.091h-11.636l-9.309,24.436 C366.545,247.855,370.036,250.182,373.527,251.345z"/><path class="cwssvgi_23" style="fill:#70B7E5;" d="M350.255,250.182l10.473-29.091h-34.909l-11.636,33.745 C325.818,257.164,338.618,256,350.255,250.182z"/><path class="cwssvgi_24" style="fill:#99B4CD;" d="M488.727,93.091H23.273c-6.982,0-11.636-4.655-11.636-11.636V58.182 c0-6.982,4.655-11.636,11.636-11.636h465.455c6.982,0,11.636,4.655,11.636,11.636v23.273 C500.364,88.436,495.709,93.091,488.727,93.091z"/><path class="cwssvgi_25" style="fill:#6C9ABB;" d="M488.727,58.182v11.636c0,6.982-4.655,11.636-11.636,11.636H23.273c-6.982,0-8.145,11.636,0,11.636 l0,0h465.455c6.982,0,11.636-4.655,11.636-11.636V58.182l0,0C500.364,50.036,488.727,51.2,488.727,58.182z"/><rect class="cwssvgi_26" x="23.273" y="93.091" style="fill:#F6B545;" width="465.455" height="11.636"/><path class="cwssvgi_27" style="fill:#B0C4D9;" d="M180.364,58.182H29.091c-3.491,0-5.818-2.327-5.818-5.818l0,0c0-3.491,2.327-5.818,5.818-5.818 h151.273c3.491,0,5.818,2.327,5.818,5.818l0,0C186.182,55.855,183.855,58.182,180.364,58.182z"/><path class="cwssvgi_28" style="fill:#B0C4D9;" d="M261.818,58.182h-58.182c-3.491,0-5.818-2.327-5.818-5.818l0,0c0-3.491,2.327-5.818,5.818-5.818 h58.182c3.491,0,5.818,2.327,5.818,5.818l0,0C267.636,55.855,265.309,58.182,261.818,58.182z"/><rect class="cwssvgi_29" x="453.818" y="302.545" style="fill:#F6B545;" width="23.273" height="11.636"/><rect class="cwssvgi_30" x="453.818" y="384" style="fill:#F6B545;" width="23.273" height="11.636"/><rect class="cwssvgi_31" x="244.364" y="395.636" style="fill:#F6B545;" width="23.273" height="11.636"/><rect class="cwssvgi_32" x="442.182" y="279.273" style="fill:#F6B545;" width="23.273" height="11.636"/><rect class="cwssvgi_33" x="197.818" y="395.636" style="fill:#F6B545;" width="23.273" height="11.636"/><rect class="cwssvgi_34" x="209.455" y="279.273" style="fill:#F6B545;" width="23.273" height="11.636"/><rect class="cwssvgi_35" x="34.909" y="325.818" style="fill:#F6B545;" width="23.273" height="11.636"/><rect class="cwssvgi_36" x="197.818" y="290.909" style="fill:#F6B545;" width="23.273" height="11.636"/><rect class="cwssvgi_37" x="442.182" y="314.182" style="fill:#F6B545;" width="23.273" height="11.636"/><polygon class="cwssvgi_38" style="fill:#ACD6F2;" points="116.364,430.545 93.091,430.545 128,325.818 151.273,325.818 "/><polygon class="cwssvgi_39" style="fill:#ACD6F2;" points="139.636,430.545 128,430.545 162.909,325.818 174.545,325.818 "/><rect class="cwssvgi_40" x="81.455" y="325.818" style="fill:#4C9CD6;" width="93.091" height="11.636"/><polygon class="cwssvgi_41" style="fill:#70B7E5;" points="171.055,337.455 174.545,325.818 162.909,325.818 159.418,337.455 "/><polygon class="cwssvgi_42" style="fill:#70B7E5;" points="147.782,337.455 151.273,325.818 128,325.818 124.509,337.455 "/><polygon class="cwssvgi_43" style="fill:#ACD6F2;" points="116.364,314.182 93.091,314.182 128,209.455 151.273,209.455 "/><polygon class="cwssvgi_44" style="fill:#ACD6F2;" points="139.636,314.182 128,314.182 162.909,209.455 174.545,209.455 "/><path class="cwssvgi_45" style="fill:#70B7E5;" d="M159.418,221.091l-8.145,23.273c3.491,2.327,5.818,4.655,9.309,5.818l9.309-29.091H159.418z"/><path class="cwssvgi_46" style="fill:#70B7E5;" d="M124.509,221.091L112.873,256c8.145,0,16.291-1.164,24.436-3.491l10.473-31.418H124.509z"/><polygon class="cwssvgi_47" style="fill:#F26A5F;" points="500.364,186.182 11.636,186.182 58.182,116.364 453.818,116.364 "/><polygon class="cwssvgi_48" style="fill:#FFFFFF;" points="151.273,186.182 81.455,186.182 116.364,116.364 174.545,116.364 "/><polygon class="cwssvgi_49" style="fill:#FFFFFF;" points="360.727,186.182 430.545,186.182 395.636,116.364 337.455,116.364 "/><polygon class="cwssvgi_50" style="fill:#FFFFFF;" points="290.909,186.182 221.091,186.182 232.727,116.364 279.273,116.364 "/><path class="cwssvgi_51" style="fill:#F04B4D;" d="M11.636,186.182v34.909c19.782,15.127,50.036,15.127,69.818,0h69.818 c19.782,15.127,50.036,15.127,69.818,0h69.818c19.782,15.127,50.036,15.127,69.818,0h69.818c19.782,15.127,50.036,15.127,69.818,0 v-34.909H11.636z"/><path class="cwssvgi_52" style="fill:#B0C4D9;" d="M81.455,186.182v34.909c19.782,15.127,50.036,15.127,69.818,0v-34.909H81.455z"/><path class="cwssvgi_53" style="fill:#B0C4D9;" d="M221.091,186.182v34.909c19.782,15.127,50.036,15.127,69.818,0v-34.909H221.091z"/><path class="cwssvgi_54" style="fill:#B0C4D9;" d="M360.727,186.182v34.909c19.782,15.127,50.036,15.127,69.818,0v-34.909H360.727z"/><polygon class="cwssvgi_55" style="fill:#F04B4D;" points="360.727,186.182 349.091,186.182 328.145,116.364 337.455,116.364 "/><polygon class="cwssvgi_56" style="fill:#F04B4D;" points="221.091,186.182 209.455,186.182 223.418,116.364 232.727,116.364 "/><polygon class="cwssvgi_57" style="fill:#F04B4D;" points="81.455,186.182 69.818,186.182 107.055,116.364 116.364,116.364 "/><polygon class="cwssvgi_58" style="fill:#F04B4D;" points="500.364,186.182 488.727,186.182 444.509,116.364 453.818,116.364 "/><polygon class="cwssvgi_59" style="fill:#D4E3EE;" points="430.545,186.182 418.909,186.182 386.327,116.364 395.636,116.364 "/><polygon class="cwssvgi_60" style="fill:#D4E3EE;" points="290.909,186.182 279.273,186.182 269.964,116.364 279.273,116.364 "/><polygon class="cwssvgi_61" style="fill:#D4E3EE;" points="151.273,186.182 139.636,186.182 165.236,116.364 174.545,116.364 "/><path class="cwssvgi_62" style="fill:#DE333F;" d="M349.091,186.182v20.945c0,9.309-5.818,18.618-15.127,22.109c-4.655,1.164-9.309,2.327-13.964,3.491 c13.964,1.164,29.091-2.327,40.727-11.636v-34.909L349.091,186.182L349.091,186.182z"/><path class="cwssvgi_63" style="fill:#DE333F;" d="M488.727,186.182v20.945c0,9.309-5.818,18.618-15.127,22.109c-4.655,1.164-9.309,2.327-13.964,3.491 c13.964,1.164,29.091-2.327,40.727-11.636v-34.909L488.727,186.182L488.727,186.182z"/><path class="cwssvgi_64" style="fill:#99B5CD;" d="M418.909,186.182v20.945c0,9.309-5.818,18.618-15.127,22.109c-4.655,1.164-9.309,2.327-13.964,3.491 c13.964,1.164,29.091-2.327,40.727-11.636v-34.909L418.909,186.182L418.909,186.182z"/><path class="cwssvgi_65" style="fill:#DE333F;" d="M209.455,186.182v20.945c0,9.309-5.818,18.618-15.127,22.109c-4.655,1.164-9.309,2.327-13.964,3.491 c13.964,1.164,29.091-2.327,40.727-11.636v-34.909L209.455,186.182L209.455,186.182z"/><path class="cwssvgi_66" style="fill:#99B5CD;" d="M279.273,186.182v20.945c0,9.309-5.818,18.618-15.127,22.109c-4.655,1.164-9.309,2.327-13.964,3.491 c13.964,1.164,29.091-2.327,40.727-11.636v-34.909L279.273,186.182L279.273,186.182z"/><path class="cwssvgi_67" style="fill:#DE333F;" d="M69.818,186.182v20.945c0,9.309-5.818,18.618-15.127,22.109c-4.655,1.164-9.309,2.327-13.964,3.491 c13.964,1.164,29.091-2.327,40.727-11.636v-34.909H69.818z"/><path class="cwssvgi_68" style="fill:#99B5CD;" d="M139.636,186.182v20.945c0,9.309-5.818,18.618-15.127,22.109c-4.655,1.164-9.309,2.327-13.964,3.491 c13.964,1.164,29.091-2.327,40.727-11.636v-34.909L139.636,186.182L139.636,186.182z"/></svg>