<svg data-cwssvg-init class="093-agenda.svg" version="1.1" xmlns="http://www.w3.org/2000/svg" xmlns:xlink="http://www.w3.org/1999/xlink" x="0px" y="0px" viewBox="0 0 512 512" style="enable-background:new 0 0 512 512;" xml:space="preserve"><path class="cwssvgi_0" style="fill:#A35425;" d="M453.818,512h-93.091V23.273h93.091c12.8,0,23.273,10.473,23.273,23.273v442.182 C477.091,501.527,466.618,512,453.818,512z"/><path class="cwssvgi_1" style="fill:#7F4122;" d="M360.727,512h69.818c12.8,0,23.273-10.473,23.273-23.273l0,0h-93.091V512z"/><rect class="cwssvgi_2" x="384" y="46.545" style="fill:#FFFFFF;" width="69.818" height="442.182"/><path class="cwssvgi_3" style="fill:#C87729;" d="M360.727,512H58.182c-12.8,0-23.273-10.473-23.273-23.273V46.545 c0-12.8,10.473-23.273,23.273-23.273h302.545c12.8,0,23.273,10.473,23.273,23.273v442.182C384,501.527,373.527,512,360.727,512z"/><path class="cwssvgi_4" id="SVGCleanerId_0_1_" style="fill:#C87729;" d="M360.727,512H58.182c-12.8,0-23.273-10.473-23.273-23.273V46.545 c0-12.8,10.473-23.273,23.273-23.273h302.545c12.8,0,23.273,10.473,23.273,23.273v442.182C384,501.527,373.527,512,360.727,512z"/><path class="cwssvgi_5" style="fill:#B06328;" d="M360.727,46.545v430.545c0,6.982-4.655,11.636-11.636,11.636H58.182 c-15.127,0-16.291,23.273-1.164,23.273l0,0h302.545c12.8,0,23.273-10.473,23.273-23.273V46.545l0,0 C384,31.418,360.727,32.582,360.727,46.545z"/><path class="cwssvgi_6" id="SVGCleanerId_1" style="fill:#F6B545;" d="M290.909,139.636L256,116.364l-34.909,23.273V23.273 c0-12.8,10.473-23.273,23.273-23.273h69.818l0,0c-12.8,0-23.273,10.473-23.273,23.273V139.636z"/><path class="cwssvgi_7" style="fill:#E78825;" d="M290.909,23.273c0-12.8,10.473-23.273,23.273-23.273c12.8,0,23.273,10.473,23.273,23.273"/><path class="cwssvgi_8" style="fill:#B06328;" d="M244.364,139.636l34.909-23.273l34.909,23.273V34.909c0-6.982,4.655-11.636,11.636-11.636h11.636 h-93.091V139.636z"/><path class="cwssvgi_9" id="SVGCleanerId_1_1_" style="fill:#F6B545;" d="M290.909,139.636L256,116.364l-34.909,23.273V23.273 c0-12.8,10.473-23.273,23.273-23.273h69.818l0,0c-12.8,0-23.273,10.473-23.273,23.273V139.636z"/><path class="cwssvgi_10" style="fill:#F6B545;" d="M314.182,272.291c-3.491-53.527-47.709-96.582-102.4-97.745c-30.255,0-59.345,11.636-79.127,33.745 c-20.945,22.109-30.255,52.364-26.764,82.618c4.655,46.545,41.891,84.945,87.273,91.927C198.982,384,204.8,384,209.455,384 c18.618,0,36.073-4.655,52.364-13.964c5.818-3.491,6.982-10.473,4.655-16.291c-3.491-5.818-10.473-6.982-16.291-4.655 c-16.291,9.309-34.909,12.8-53.527,9.309c-34.909-5.818-64-34.909-67.491-70.982c-2.327-24.436,4.655-46.545,20.945-64 s38.4-26.764,61.673-26.764c40.727,1.164,76.8,34.909,79.127,76.8c0,5.818,0,12.8-1.164,18.618 c-1.164,5.818-5.818,9.309-11.636,9.309h-10.473c-6.982,0-11.636-4.655-11.636-11.636V243.2c0-6.982-4.655-11.636-11.636-11.636 c-4.655,0-9.309,2.327-10.473,6.982c-6.982-3.491-15.127-5.818-24.436-5.818c-25.6,0-46.545,20.945-46.545,46.545 s20.945,46.545,46.545,46.545c12.8,0,23.273-4.655,31.418-12.8c6.982,8.145,16.291,12.8,26.764,12.8h10.473 c17.455,0,31.418-12.8,34.909-29.091C314.182,288.582,314.182,280.436,314.182,272.291z M209.455,302.545 c-12.8,0-23.273-10.473-23.273-23.273S196.655,256,209.455,256c12.8,0,23.273,10.473,23.273,23.273S222.255,302.545,209.455,302.545 z"/><path class="cwssvgi_11" style="fill:#D5E3EF;" d="M453.818,324.655c0,5.818-6.982,10.473-11.636,6.982l-34.909-17.455l0,0l46.545-11.636V324.655z"/><path class="cwssvgi_12" style="fill:#D5E3EF;" d="M442.182,185.018c0,5.818-6.982,10.473-11.636,6.982l-34.909-17.455l0,0l46.545-11.636V185.018z"/><path class="cwssvgi_13" style="fill:#D5E3EF;" d="M465.455,466.618c0,4.655-4.655,8.145-9.309,5.818l-37.236-18.618l0,0l46.545-11.636V466.618z"/><path class="cwssvgi_14" style="fill:#89C763;" d="M442.182,314.182h-34.909V197.818h34.909c6.982,0,11.636,4.655,11.636,11.636v93.091 C453.818,309.527,449.164,314.182,442.182,314.182z"/><path class="cwssvgi_15" style="fill:#7F4122;" d="M453.818,471.273l2.327,1.164c4.655,2.327,9.309-1.164,9.309-5.818v-24.436l-11.636,2.327V471.273z" /><path class="cwssvgi_16" style="fill:#70B7E5;" d="M453.818,453.818h-34.909V337.455h34.909c6.982,0,11.636,4.655,11.636,11.636v93.091 C465.455,449.164,460.8,453.818,453.818,453.818z"/><path class="cwssvgi_17" style="fill:#F79548;" d="M430.545,174.545h-34.909V58.182h34.909c6.982,0,11.636,4.655,11.636,11.636v93.091 C442.182,169.891,437.527,174.545,430.545,174.545z"/><path class="cwssvgi_18" style="fill:#F37321;" d="M430.545,87.273v58.182c0,3.491-2.327,5.818-5.818,5.818l0,0c-3.491,0-5.818-2.327-5.818-5.818 V87.273c0-3.491,2.327-5.818,5.818-5.818l0,0C428.218,81.455,430.545,83.782,430.545,87.273z"/><path class="cwssvgi_19" style="fill:#72AF48;" d="M442.182,226.909v58.182c0,3.491-2.327,5.818-5.818,5.818l0,0c-3.491,0-5.818-2.327-5.818-5.818 v-58.182c0-3.491,2.327-5.818,5.818-5.818l0,0C439.855,221.091,442.182,223.418,442.182,226.909z"/><path class="cwssvgi_20" style="fill:#4C9CD6;" d="M453.818,366.545v58.182c0,3.491-2.327,5.818-5.818,5.818l0,0c-3.491,0-5.818-2.327-5.818-5.818 v-58.182c0-3.491,2.327-5.818,5.818-5.818l0,0C451.491,360.727,453.818,363.055,453.818,366.545z"/></svg>