<svg data-cwssvg-init class="094-envelope.svg" version="1.1" xmlns="http://www.w3.org/2000/svg" xmlns:xlink="http://www.w3.org/1999/xlink" x="0px" y="0px" viewBox="0 0 512 512" style="enable-background:new 0 0 512 512;" xml:space="preserve"><path class="cwssvgi_0" style="fill:#B06328;" d="M501.527,238.545l-224.582,128c-5.818,3.491-12.8,4.655-18.618,4.655H256 c-6.982,0-12.8-1.164-18.618-4.655l-224.582-128C3.491,235.055,0,228.073,0,221.091l0,0c0-6.982,3.491-13.964,9.309-17.455 L235.055,53.527c5.818-4.655,12.8-6.982,20.945-6.982l0,0c8.145,0,15.127,2.327,20.945,6.982l225.745,150.109 c5.818,3.491,9.309,10.473,9.309,17.455l0,0C512,228.073,508.509,235.055,501.527,238.545z"/><path class="cwssvgi_1" style="fill:#A35425;" d="M465.455,216.436v-22.109c0-10.473-5.818-19.782-13.964-25.6l-9.309-5.818v87.273L256,325.818 L0,221.091c0,6.982,4.655,13.964,10.473,17.455l224.582,128c5.818,3.491,12.8,4.655,18.618,4.655H256 c6.982,0,12.8-2.327,18.618-4.655l167.564-94.255l0,0l8.145-4.655l50.036-29.091c5.818-3.491,10.473-10.473,10.473-17.455 L486.4,231.564C477.091,235.055,465.455,228.073,465.455,216.436z"/><path class="cwssvgi_2" style="fill:#D5E3EF;" d="M442.182,104.727v360.727c0,12.8-10.473,23.273-23.273,23.273H93.091 c-12.8,0-23.273-10.473-23.273-23.273V23.273C69.818,10.473,80.291,0,93.091,0h244.364v81.455c0,12.8,10.473,23.273,23.273,23.273 H442.182z"/><path class="cwssvgi_3" style="fill:#99B4CD;" d="M442.182,104.727h-81.455c-12.8,0-23.273-10.473-23.273-23.273V0L442.182,104.727z"/><path class="cwssvgi_4" style="fill:#3D545F;" d="M122.182,139.636h93.091c3.491,0,5.818,2.327,5.818,5.818l0,0c0,3.491-2.327,5.818-5.818,5.818 h-93.091c-3.491,0-5.818-2.327-5.818-5.818l0,0C116.364,141.964,118.691,139.636,122.182,139.636z"/><path class="cwssvgi_5" style="fill:#3D545F;" d="M192,209.455h93.091c3.491,0,5.818,2.327,5.818,5.818l0,0c0,3.491-2.327,5.818-5.818,5.818H192 c-3.491,0-5.818-2.327-5.818-5.818l0,0C186.182,211.782,188.509,209.455,192,209.455z"/><path class="cwssvgi_6" style="fill:#3D545F;" d="M215.273,244.364h116.364c3.491,0,5.818,2.327,5.818,5.818l0,0c0,3.491-2.327,5.818-5.818,5.818 H215.273c-3.491,0-5.818-2.327-5.818-5.818l0,0C209.455,246.691,211.782,244.364,215.273,244.364z"/><path class="cwssvgi_7" style="fill:#3D545F;" d="M122.182,174.545H192c3.491,0,5.818,2.327,5.818,5.818l0,0c0,3.491-2.327,5.818-5.818,5.818h-69.818 c-3.491,0-5.818-2.327-5.818-5.818l0,0C116.364,176.873,118.691,174.545,122.182,174.545z"/><path class="cwssvgi_8" style="fill:#3D545F;" d="M308.364,139.636h69.818c3.491,0,5.818,2.327,5.818,5.818l0,0c0,3.491-2.327,5.818-5.818,5.818 h-69.818c-3.491,0-5.818-2.327-5.818-5.818l0,0C302.545,141.964,304.873,139.636,308.364,139.636z"/><path class="cwssvgi_9" style="fill:#3D545F;" d="M238.545,139.636h46.545c3.491,0,5.818,2.327,5.818,5.818l0,0c0,3.491-2.327,5.818-5.818,5.818 h-46.545c-3.491,0-5.818-2.327-5.818-5.818l0,0C232.727,141.964,235.055,139.636,238.545,139.636z"/><path class="cwssvgi_10" style="fill:#3D545F;" d="M343.273,174.545h23.273c3.491,0,5.818,2.327,5.818,5.818l0,0c0,3.491-2.327,5.818-5.818,5.818 h-23.273c-3.491,0-5.818-2.327-5.818-5.818l0,0C337.455,176.873,339.782,174.545,343.273,174.545z"/><path class="cwssvgi_11" style="fill:#3D545F;" d="M354.909,244.364h23.273c3.491,0,5.818,2.327,5.818,5.818l0,0c0,3.491-2.327,5.818-5.818,5.818 h-23.273c-3.491,0-5.818-2.327-5.818-5.818l0,0C349.091,246.691,351.418,244.364,354.909,244.364z"/><path class="cwssvgi_12" style="fill:#3D545F;" d="M308.364,209.455h46.545c3.491,0,5.818,2.327,5.818,5.818l0,0c0,3.491-2.327,5.818-5.818,5.818 h-46.545c-3.491,0-5.818-2.327-5.818-5.818l0,0C302.545,211.782,304.873,209.455,308.364,209.455z"/><path class="cwssvgi_13" style="fill:#3D545F;" d="M215.273,174.545H320c3.491,0,5.818,2.327,5.818,5.818l0,0c0,3.491-2.327,5.818-5.818,5.818H215.273 c-3.491,0-5.818-2.327-5.818-5.818l0,0C209.455,176.873,211.782,174.545,215.273,174.545z"/><path class="cwssvgi_14" style="fill:#3D545F;" d="M203.636,93.091h104.727c3.491,0,5.818,2.327,5.818,5.818l0,0c0,3.491-2.327,5.818-5.818,5.818 H203.636c-3.491,0-5.818-2.327-5.818-5.818l0,0C197.818,95.418,200.145,93.091,203.636,93.091z"/><path class="cwssvgi_15" style="fill:#3D545F;" d="M122.182,209.455h46.545c3.491,0,5.818,2.327,5.818,5.818l0,0c0,3.491-2.327,5.818-5.818,5.818 h-46.545c-3.491,0-5.818-2.327-5.818-5.818l0,0C116.364,211.782,118.691,209.455,122.182,209.455z"/><path class="cwssvgi_16" style="fill:#3D545F;" d="M122.182,244.364H192c3.491,0,5.818,2.327,5.818,5.818l0,0c0,3.491-2.327,5.818-5.818,5.818h-69.818 c-3.491,0-5.818-2.327-5.818-5.818l0,0C116.364,246.691,118.691,244.364,122.182,244.364z"/><path class="cwssvgi_17" style="fill:#FFCB5B;" d="M501.527,238.545l-224.582,128c-5.818,3.491-12.8,4.655-18.618,4.655H256 c-6.982,0-12.8-2.327-18.618-4.655l-224.582-128C4.655,235.055,0,228.073,0,221.091c0,0,0,0,0,1.164v266.473 C0,501.527,10.473,512,23.273,512h465.455c12.8,0,23.273-10.473,23.273-23.273V222.255c0,0,0,0,0-1.164 C512,228.073,507.345,235.055,501.527,238.545z"/><path class="cwssvgi_18" style="fill:#F7B84E;" d="M512,244.364c0,6.982-4.655,13.964-10.473,17.455L290.909,381.673c0,0-10.473,4.655-19.782,9.309 C262.982,394.473,256,402.618,256,411.927v53.527c0,12.8-10.473,23.273-23.273,23.273H23.273C8.145,488.727,6.982,512,22.109,512 l0,0h465.455c12.8,0,23.273-10.473,23.273-23.273L512,244.364L512,244.364z"/><path class="cwssvgi_19" style="fill:#C9D5E3;" d="M246.691,328.145L69.818,256v16.291l165.236,94.255c5.818,3.491,12.8,4.655,18.618,4.655H256 c6.982,0,12.8-2.327,18.618-4.655l167.564-94.255V256l-176.873,72.145C259.491,330.473,252.509,330.473,246.691,328.145z"/><polygon class="cwssvgi_20" style="fill:#C9D5E3;" points="442.182,104.727 372.364,104.727 442.182,151.273 "/><circle class="cwssvgi_21" style="fill:#B06328;" cx="453.818" cy="430.545" r="11.636"/><path class="cwssvgi_22" style="fill:#B06328;" d="M453.818,407.273c12.8,0,23.273,10.473,23.273,23.273s-10.473,23.273-23.273,23.273 c-12.8,0-23.273-10.473-23.273-23.273S441.018,407.273,453.818,407.273 M453.818,395.636c-19.782,0-34.909,15.127-34.909,34.909 s15.127,34.909,34.909,34.909s34.909-15.127,34.909-34.909S473.6,395.636,453.818,395.636L453.818,395.636z"/><path class="cwssvgi_23" style="fill:#B06328;" d="M331.636,430.545c-10.473,0-20.945-4.655-27.927-13.964c-2.327-2.327-1.164-5.818,1.164-8.145 c2.327-2.327,5.818-1.164,8.145,1.164c10.473,12.8,27.927,12.8,37.236,0c15.127-17.455,40.727-17.455,55.855,0 c2.327,2.327,1.164,5.818-1.164,8.145c-2.327,2.327-5.818,1.164-8.145-1.164c-10.473-12.8-27.927-12.8-37.236,0 C352.582,425.891,342.109,430.545,331.636,430.545z"/><path class="cwssvgi_24" style="fill:#B06328;" d="M331.636,465.455c-10.473,0-20.945-4.655-27.927-13.964c-2.327-2.327-1.164-5.818,1.164-8.145 c2.327-2.327,5.818-1.164,8.145,1.164c10.473,12.8,27.927,12.8,37.236,0c15.127-17.455,40.727-17.455,55.855,0 c2.327,2.327,1.164,5.818-1.164,8.145c-2.327,2.327-5.818,1.164-8.145-1.164c-10.473-12.8-27.927-12.8-37.236,0 C352.582,460.8,342.109,465.455,331.636,465.455z"/><path class="cwssvgi_25" style="fill:#FFE27A;" d="M11.636,430.545C4.655,430.545,0,425.891,0,418.909v-128c0-6.982,4.655-11.636,11.636-11.636 s11.636,4.655,11.636,11.636v128C23.273,425.891,18.618,430.545,11.636,430.545z"/><path class="cwssvgi_26" style="fill:#F19920;" d="M314.182,500.364c0-6.982,4.655-11.636,11.636-11.636h162.909c6.982,0,11.636,4.655,11.636,11.636 S495.709,512,488.727,512H325.818C318.836,512,314.182,507.345,314.182,500.364z"/></svg>